<svg viewBox="0 0 1059 301" fill="none" xmlns="http://www.w3.org/2000/svg" preserveAspectRatio="xMidYMid meet">
<path d="M191.331 185V23H223.931C234.731 23 243.664 24.4667 250.731 27.4C257.798 30.2 262.998 34.8 266.331 41.2C269.798 47.4667 271.531 55.7333 271.531 66C271.531 72.2667 270.864 78 269.531 83.2C268.198 88.2667 266.064 92.6 263.131 96.2C260.198 99.6667 256.331 102.2 251.531 103.8L274.531 185H252.731L231.531 109H213.931V185H191.331ZM213.931 92.8H222.531C228.931 92.8 234.131 92 238.131 90.4C242.131 88.8 245.064 86.0667 246.931 82.2C248.798 78.3333 249.731 72.9333 249.731 66C249.731 56.5333 247.998 49.7333 244.531 45.6C241.064 41.3333 234.198 39.2 223.931 39.2H213.931V92.8Z" fill="#303131"/>
<path d="M101.237 185V23H141.437C151.171 23 158.904 24.8 164.637 28.4C170.504 31.8667 174.771 36.9333 177.437 43.6C180.104 50.2667 181.437 58.3333 181.437 67.8C181.437 76.3333 179.904 83.7333 176.837 90C173.904 96.2667 169.504 101.133 163.637 104.6C157.771 107.933 150.437 109.6 141.637 109.6H123.837V185H101.237ZM123.837 93.4H134.237C140.771 93.4 145.904 92.6667 149.637 91.2C153.371 89.7333 156.037 87.2 157.637 83.6C159.237 79.8667 160.037 74.6667 160.037 68C160.037 60.2667 159.437 54.3333 158.237 50.2C157.171 46.0667 154.837 43.2 151.237 41.6C147.637 40 142.037 39.2 134.437 39.2H123.837V93.4Z" fill="#303131"/>
<path d="M0 185L34.4 23H56.2L90.8 185H69.4L62 144.2H29L21.2 185H0ZM32 128H59L45.4 55L32 128Z" fill="#303131"/>
<path d="M345.531 0L418.531 48V160L345.531 208V0Z" fill="#2395CD"/>
<path d="M318.531 29L371.531 63.6154V144.385L318.531 179V29Z" fill="#CD067C"/>
<path fill-rule="evenodd" clip-rule="evenodd" d="M345.531 161.366V46.6343L371.531 63.6154V144.385L345.531 161.366Z" fill="#481F82"/>
<path d="M299.531 61L330.531 80.8462V127.154L299.531 147V61Z" fill="#FCA249"/>
<path fill-rule="evenodd" clip-rule="evenodd" d="M318.531 134.836V73.1638L330.531 80.8462V127.154L318.531 134.836Z" fill="#9D1233"/>
<path d="M1000.75 184.8V127.6L965.753 22.8H986.753L1011.55 101L1035.95 22.8H1057.15L1022.35 127.6V184.8H1000.75Z" fill="#303131"/>
<path d="M911.136 184.8V39.6001H883.736V22.8H960.336V39.6001H933.736V184.8H911.136Z" fill="#303131"/>
<path d="M844.927 184.8V22.8H867.127V184.8H844.927Z" fill="#303131"/>
<path d="M764.234 184.8V22.8H786.834V168.6H828.234V184.8H764.234Z" fill="#303131"/>
<path d="M715.825 184.8V22.8H738.025V184.8H715.825Z" fill="#303131"/>
<path d="M652.295 186.6C640.829 186.6 631.895 184.2 625.495 179.4C619.229 174.6 614.829 168.133 612.295 160C609.895 151.867 608.695 142.8 608.695 132.8V75.6C608.695 64.6667 609.895 55.1334 612.295 47C614.829 38.8667 619.229 32.6 625.495 28.2C631.895 23.6667 640.829 21.4 652.295 21.4C662.429 21.4 670.429 23.2667 676.295 27C682.295 30.7334 686.562 36.0667 689.095 43C691.762 49.9334 693.095 58.2667 693.095 68V80.8H671.695V69.4C671.695 63.4 671.362 58.1334 670.695 53.6C670.162 48.9334 668.562 45.3334 665.895 42.8C663.229 40.2667 658.762 39 652.495 39C646.095 39 641.429 40.4 638.495 43.2C635.562 45.8667 633.629 49.7334 632.695 54.8C631.895 59.7334 631.495 65.5334 631.495 72.2V136.4C631.495 144.533 632.162 151 633.495 155.8C634.829 160.467 637.029 163.8 640.095 165.8C643.162 167.8 647.295 168.8 652.495 168.8C658.629 168.8 663.029 167.467 665.695 164.8C668.362 162 670.029 158.2 670.695 153.4C671.362 148.6 671.695 143 671.695 136.6V124.6H693.095V136.6C693.095 146.467 691.895 155.2 689.495 162.8C687.095 170.267 682.962 176.133 677.095 180.4C671.229 184.533 662.962 186.6 652.295 186.6Z" fill="#303131"/>
<path d="M505.435 184.8L539.835 22.8H561.635L596.235 184.8H574.835L567.435 144H534.435L526.635 184.8H505.435ZM537.435 127.8H564.435L550.835 54.8001L537.435 127.8Z" fill="#303131"/>
<path d="M443.531 184.8V22.8H506.131V39.0001H466.131V93.0001H497.131V109H466.131V184.8H443.531Z" fill="#303131"/>
<path d="M816.425 300.288V248.448H827.689C831.529 248.448 834.558 249.045 836.777 250.24C839.038 251.392 840.638 253.141 841.577 255.488C842.558 257.835 843.049 260.757 843.049 264.256V283.328C843.049 286.997 842.558 290.091 841.577 292.608C840.638 295.125 839.081 297.045 836.905 298.368C834.772 299.648 831.891 300.288 828.265 300.288H816.425ZM823.657 295.104H827.753C830.398 295.104 832.275 294.592 833.385 293.568C834.494 292.544 835.156 291.051 835.369 289.088C835.625 287.125 835.753 284.757 835.753 281.984V265.152C835.753 262.464 835.582 260.288 835.241 258.624C834.9 256.96 834.153 255.744 833.001 254.976C831.849 254.208 830.036 253.824 827.561 253.824H823.657V295.104Z" fill="#303131"/>
<path d="M790.362 300.288V248.448H810.458V253.824H797.594V270.976H808.026V276.096H797.594V295.104H810.586V300.288H790.362Z" fill="#303131"/>
<path d="M769.621 300.288V253.824H760.853V248.448H785.365V253.824H776.853V300.288H769.621Z" fill="#303131"/>
<path d="M748.434 300.288V248.448H755.538V300.288H748.434Z" fill="#303131"/>
<path d="M705.672 300.288L706.632 248.448H713.736L722.888 290.496L732.104 248.448H739.144L740.104 300.288H734.28L733.704 262.656L724.936 300.288H720.84L712.136 262.656L711.56 300.288H705.672Z" fill="#303131"/>
<path d="M690.309 300.288V248.448H697.413V300.288H690.309Z" fill="#303131"/>
<path d="M664.487 300.288V248.448H671.719V295.104H684.967V300.288H664.487Z" fill="#303131"/>
<path d="M623.8 300.288V248.448H643.896V253.824H631.032V270.976H641.464V276.096H631.032V295.104H644.024V300.288H623.8Z" fill="#303131"/>
<path d="M603.058 300.288V253.824H594.29V248.448H618.802V253.824H610.29V300.288H603.058Z" fill="#303131"/>
<path d="M565.671 300.288L576.679 248.448H583.655L594.727 300.288H587.879L585.511 287.232H574.951L572.455 300.288H565.671ZM575.911 282.048H584.551L580.199 258.688L575.911 282.048Z" fill="#303131"/>
<path d="M547.698 300.288L536.114 248.448H542.898L551.09 286.656L558.898 248.448H565.49L554.034 300.288H547.698Z" fill="#303131"/>
<path d="M523.184 300.288V248.448H530.288V300.288H523.184Z" fill="#303131"/>
<path d="M489.612 300.288V248.448H500.044C503.5 248.448 506.359 248.917 508.62 249.856C510.882 250.752 512.546 252.224 513.612 254.272C514.722 256.277 515.276 258.923 515.276 262.208C515.276 264.213 515.063 266.048 514.636 267.712C514.21 269.333 513.527 270.72 512.588 271.872C511.65 272.981 510.412 273.792 508.876 274.304L516.236 300.288H509.26L502.476 275.968H496.844V300.288H489.612ZM496.844 270.784H499.596C501.644 270.784 503.308 270.528 504.588 270.016C505.868 269.504 506.807 268.629 507.404 267.392C508.002 266.155 508.3 264.427 508.3 262.208C508.3 259.179 507.746 257.003 506.636 255.68C505.527 254.315 503.33 253.632 500.044 253.632H496.844V270.784Z" fill="#303131"/>
<path d="M458.862 300.288V248.448H471.726C474.841 248.448 477.316 249.024 479.15 250.176C481.028 251.285 482.393 252.907 483.246 255.04C484.1 257.173 484.526 259.755 484.526 262.784C484.526 265.515 484.036 267.883 483.054 269.888C482.116 271.893 480.708 273.451 478.83 274.56C476.953 275.627 474.606 276.16 471.79 276.16H466.094V300.288H458.862ZM466.094 270.976H469.422C471.513 270.976 473.156 270.741 474.35 270.272C475.545 269.803 476.398 268.992 476.91 267.84C477.422 266.645 477.678 264.981 477.678 262.848C477.678 260.373 477.486 258.475 477.102 257.152C476.761 255.829 476.014 254.912 474.862 254.4C473.71 253.888 471.918 253.632 469.486 253.632H466.094V270.976Z" fill="#303131"/>
<path d="M426.211 300.864C423.225 300.864 420.729 300.224 418.723 298.944C416.761 297.664 415.267 295.893 414.243 293.632C413.219 291.371 412.622 288.747 412.451 285.76L418.851 284.032C418.979 285.867 419.256 287.637 419.683 289.344C420.152 291.051 420.899 292.459 421.923 293.568C422.947 294.635 424.377 295.168 426.211 295.168C428.089 295.168 429.497 294.656 430.435 293.632C431.417 292.565 431.907 291.051 431.907 289.088C431.907 286.741 431.374 284.864 430.307 283.456C429.24 282.005 427.897 280.555 426.275 279.104L417.571 271.424C415.865 269.931 414.606 268.309 413.795 266.56C412.984 264.768 412.579 262.571 412.579 259.968C412.579 256.171 413.667 253.227 415.843 251.136C418.019 249.045 420.984 248 424.739 248C426.787 248 428.579 248.277 430.115 248.832C431.694 249.344 432.995 250.155 434.019 251.264C435.086 252.373 435.918 253.781 436.515 255.488C437.155 257.152 437.582 259.115 437.795 261.376L431.651 263.04C431.523 261.333 431.267 259.776 430.883 258.368C430.499 256.917 429.817 255.765 428.835 254.912C427.897 254.016 426.531 253.568 424.739 253.568C422.947 253.568 421.539 254.059 420.515 255.04C419.534 255.979 419.043 257.387 419.043 259.264C419.043 260.843 419.299 262.144 419.811 263.168C420.366 264.192 421.241 265.237 422.435 266.304L431.203 273.984C433.166 275.691 434.894 277.739 436.387 280.128C437.881 282.475 438.627 285.269 438.627 288.512C438.627 291.072 438.094 293.291 437.027 295.168C435.96 297.003 434.489 298.411 432.611 299.392C430.777 300.373 428.643 300.864 426.211 300.864Z" fill="#303131"/>
<path d="M387.925 300.288V248.448H408.021V253.824H395.157V270.976H405.589V276.096H395.157V295.104H408.149V300.288H387.925Z" fill="#303131"/>
<path d="M367.979 300.864C364.31 300.864 361.451 300.096 359.403 298.56C357.398 297.024 355.99 294.955 355.179 292.352C354.411 289.749 354.027 286.848 354.027 283.648V265.344C354.027 261.845 354.411 258.795 355.179 256.192C355.99 253.589 357.398 251.584 359.403 250.176C361.451 248.725 364.31 248 367.979 248C371.222 248 373.782 248.597 375.659 249.792C377.579 250.987 378.945 252.693 379.755 254.912C380.609 257.131 381.035 259.797 381.035 262.912V267.008H374.187V263.36C374.187 261.44 374.081 259.755 373.867 258.304C373.697 256.811 373.185 255.659 372.331 254.848C371.478 254.037 370.049 253.632 368.043 253.632C365.995 253.632 364.502 254.08 363.563 254.976C362.625 255.829 362.006 257.067 361.707 258.688C361.451 260.267 361.323 262.123 361.323 264.256V284.8C361.323 287.403 361.537 289.472 361.963 291.008C362.39 292.501 363.094 293.568 364.075 294.208C365.057 294.848 366.379 295.168 368.043 295.168C370.006 295.168 371.414 294.741 372.267 293.888C373.121 292.992 373.654 291.776 373.867 290.24C374.081 288.704 374.187 286.912 374.187 284.864V281.024H381.035V284.864C381.035 288.021 380.651 290.816 379.883 293.248C379.115 295.637 377.793 297.515 375.915 298.88C374.038 300.203 371.393 300.864 367.979 300.864Z" fill="#303131"/>
<path d="M339.496 300.288V248.448H346.6V300.288H339.496Z" fill="#303131"/>
<path d="M315.823 300.288L304.239 248.448H311.023L319.215 286.656L327.023 248.448H333.615L322.159 300.288H315.823Z" fill="#303131"/>
<path d="M273.8 300.288V248.448H284.232C287.688 248.448 290.546 248.917 292.808 249.856C295.069 250.752 296.733 252.224 297.8 254.272C298.909 256.277 299.464 258.923 299.464 262.208C299.464 264.213 299.25 266.048 298.824 267.712C298.397 269.333 297.714 270.72 296.776 271.872C295.837 272.981 294.6 273.792 293.064 274.304L300.424 300.288H293.448L286.664 275.968H281.032V300.288H273.8ZM281.032 270.784H283.784C285.832 270.784 287.496 270.528 288.776 270.016C290.056 269.504 290.994 268.629 291.592 267.392C292.189 266.155 292.488 264.427 292.488 262.208C292.488 259.179 291.933 257.003 290.824 255.68C289.714 254.315 287.517 253.632 284.232 253.632H281.032V270.784Z" fill="#303131"/>
<path d="M247.737 300.288V248.448H267.833V253.824H254.969V270.976H265.401V276.096H254.969V295.104H267.961V300.288H247.737Z" fill="#303131"/>
<path d="M229.711 300.864C226.724 300.864 224.229 300.224 222.223 298.944C220.261 297.664 218.767 295.893 217.743 293.632C216.719 291.371 216.122 288.747 215.951 285.76L222.351 284.032C222.479 285.867 222.756 287.637 223.183 289.344C223.652 291.051 224.399 292.459 225.423 293.568C226.447 294.635 227.876 295.168 229.711 295.168C231.588 295.168 232.996 294.656 233.935 293.632C234.916 292.565 235.407 291.051 235.407 289.088C235.407 286.741 234.874 284.864 233.807 283.456C232.741 282.005 231.397 280.555 229.775 279.104L221.071 271.424C219.365 269.931 218.106 268.309 217.295 266.56C216.484 264.768 216.079 262.571 216.079 259.968C216.079 256.171 217.167 253.227 219.343 251.136C221.519 249.045 224.484 248 228.239 248C230.287 248 232.079 248.277 233.615 248.832C235.194 249.344 236.495 250.155 237.519 251.264C238.586 252.373 239.418 253.781 240.015 255.488C240.655 257.152 241.082 259.115 241.295 261.376L235.151 263.04C235.023 261.333 234.767 259.776 234.383 258.368C233.999 256.917 233.317 255.765 232.335 254.912C231.397 254.016 230.031 253.568 228.239 253.568C226.447 253.568 225.039 254.059 224.015 255.04C223.034 255.979 222.543 257.387 222.543 259.264C222.543 260.843 222.799 262.144 223.311 263.168C223.866 264.192 224.74 265.237 225.935 266.304L234.703 273.984C236.666 275.691 238.394 277.739 239.887 280.128C241.381 282.475 242.127 285.269 242.127 288.512C242.127 291.072 241.594 293.291 240.527 295.168C239.461 297.003 237.989 298.411 236.111 299.392C234.277 300.373 232.143 300.864 229.711 300.864Z" fill="#303131"/>
</svg>
